<?xml version="1.0" standalone="no"?>
<!DOCTYPE svg PUBLIC "-//W3C//DTD SVG 20010904//EN"
 "http://www.w3.org/TR/2001/REC-SVG-20010904/DTD/svg10.dtd">
<svg version="1.0" xmlns="http://www.w3.org/2000/svg"
 width="400.000000pt" height="400.000000pt" viewBox="0 0 400.000000 400.000000"
 preserveAspectRatio="xMidYMid meet">
<metadata>
Created by potrace 1.11, written by Peter Selinger 2001-2013
</metadata>
<g transform="translate(0.000000,400.000000) scale(0.100000,-0.100000)"
fill="#000000" stroke="none">
<path d="M537 3993 c-8 -7 -31 -14 -59 -16 -10 -1 -18 -5 -18 -10 0 -4 -4 -6
-9 -2 -5 3 -12 1 -16 -5 -4 -6 -11 -8 -16 -5 -5 4 -9 1 -9 -4 0 -6 -3 -10 -7
-9 -13 3 -83 -33 -83 -43 0 -5 -6 -9 -13 -9 -27 0 -176 -139 -169 -159 2 -6 0
-10 -5 -9 -4 2 -8 1 -8 -2 0 -5 -11 -19 -41 -53 -6 -7 -12 -16 -13 -22 -2 -5
-8 -21 -14 -35 -6 -14 -11 -27 -12 -30 0 -3 -7 -23 -14 -44 -8 -21 -13 -49
-13 -62 0 -13 -4 -24 -8 -24 -4 0 -7 -646 -7 -1435 0 -789 2 -1433 6 -1431 4
3 7 -4 7 -15 0 -10 -4 -19 -9 -19 -5 0 -4 -7 3 -15 7 -8 9 -15 4 -15 -4 0 -3
-5 4 -12 7 -7 12 -22 12 -34 0 -12 7 -34 14 -50 8 -15 13 -31 11 -35 -3 -4 2
-10 11 -13 8 -3 12 -10 9 -16 -3 -5 -1 -10 4 -10 6 0 11 -9 11 -21 0 -11 4
-18 9 -15 5 3 12 -5 15 -19 4 -14 13 -25 21 -25 8 0 15 -7 15 -15 0 -8 5 -15
10 -15 6 0 10 -5 10 -10 0 -6 11 -22 25 -36 14 -14 25 -23 25 -20 0 3 12 -6
28 -20 54 -50 59 -54 67 -54 5 0 16 -7 26 -16 9 -8 23 -17 31 -18 7 -1 31 -10
52 -19 22 -10 50 -18 63 -19 13 -2 23 -5 23 -9 0 -3 8 -7 18 -9 37 -6 2912 -9
2912 -2 0 4 12 8 27 9 36 2 163 45 163 56 0 4 4 6 9 3 5 -3 14 1 21 9 7 8 17
15 22 15 5 0 21 11 35 24 15 14 30 23 34 20 4 -2 10 5 14 16 3 11 12 20 18 20
7 1 33 27 58 60 26 32 49 56 53 53 3 -3 3 4 1 16 -2 12 0 19 4 17 5 -3 17 14
27 37 10 23 22 45 27 48 5 3 8 9 8 13 -2 22 13 65 21 60 6 -4 5 4 -2 16 -7 12
-8 20 -3 17 6 -4 11 8 13 26 5 58 4 2881 -1 2919 -3 21 -9 41 -12 45 -4 3 -7
15 -7 25 0 10 -4 26 -9 36 -5 9 -15 31 -22 47 -17 37 -69 118 -83 127 -6 4 -7
8 -2 8 13 0 -88 93 -138 127 -22 15 -43 31 -46 35 -7 9 -63 32 -72 30 -5 -1
-8 3 -8 9 0 5 -5 7 -10 4 -5 -3 -10 -2 -10 2 0 5 -12 10 -27 11 -15 1 -29 6
-32 10 -3 4 -15 8 -26 7 -11 0 -23 5 -27 10 -5 6 -8 5 -8 -3 0 -9 -5 -10 -17
-4 -27 15 -2873 12 -2873 -2 0 -7 -3 -6 -8 2 -5 7 -12 9 -15 5z"/>
</g>
</svg>
